<mxfile host="app.diagrams.net" agent="Mozilla/5.0 (Windows NT 10.0; Win64; x64) AppleWebKit/537.36 (KHTML, like Gecko) Chrome/130.0.0.0 Safari/537.36" version="24.8.3">
  <diagram name="Page-1" id="Auo-WJhbOrM8xYh9lHOt">
    <mxGraphModel dx="1434" dy="1838" grid="1" gridSize="10" guides="1" tooltips="1" connect="1" arrows="1" fold="1" page="1" pageScale="1" pageWidth="850" pageHeight="1100" math="0" shadow="0">
      <root>
        <mxCell id="0" />
        <mxCell id="1" parent="0" />
        <mxCell id="PQHfU8y0sBaOPBiTjZiv-2" value="" style="rounded=1;whiteSpace=wrap;html=1;fillColor=#dae8fc;strokeColor=#6c8ebf;strokeWidth=2;dashed=1;dashPattern=8 8;opacity=50;" vertex="1" parent="1">
          <mxGeometry x="60" y="-50" width="420" height="510" as="geometry" />
        </mxCell>
        <mxCell id="PQHfU8y0sBaOPBiTjZiv-3" value="Exploratory Data Analysis (EDA)" style="rounded=1;whiteSpace=wrap;html=1;fillColor=#FFE6CC;strokeColor=#d79b00;strokeWidth=2;fontSize=15;textShadow=0;labelBorderColor=none;labelBackgroundColor=none;" vertex="1" parent="1">
          <mxGeometry x="210" y="-10" width="120" height="60" as="geometry" />
        </mxCell>
        <mxCell id="PQHfU8y0sBaOPBiTjZiv-4" value="Sentiment Analysis&lt;div&gt;&lt;font style=&quot;font-size: 12px;&quot;&gt;(e.g. TextBlob)&lt;/font&gt;&lt;/div&gt;" style="rounded=1;whiteSpace=wrap;html=1;fillColor=#FFE6CC;strokeColor=#d79b00;strokeWidth=2;fontSize=15;textShadow=0;labelBorderColor=none;labelBackgroundColor=none;" vertex="1" parent="1">
          <mxGeometry x="120" y="230" width="120" height="60" as="geometry" />
        </mxCell>
        <mxCell id="PQHfU8y0sBaOPBiTjZiv-6" value="Topic Modelling&lt;div&gt;&lt;font style=&quot;font-size: 12px;&quot;&gt;(e.g. LDA)&lt;/font&gt;&lt;/div&gt;" style="rounded=1;whiteSpace=wrap;html=1;fillColor=#FFE6CC;strokeColor=#d79b00;strokeWidth=2;fontSize=15;textShadow=0;labelBorderColor=none;labelBackgroundColor=none;" vertex="1" parent="1">
          <mxGeometry x="300" y="230" width="120" height="60" as="geometry" />
        </mxCell>
        <mxCell id="PQHfU8y0sBaOPBiTjZiv-7" value="Gather Insights" style="rounded=1;whiteSpace=wrap;html=1;fillColor=#FFE6CC;strokeColor=#d79b00;strokeWidth=2;fontSize=15;textShadow=0;labelBorderColor=none;labelBackgroundColor=none;" vertex="1" parent="1">
          <mxGeometry x="210" y="360" width="120" height="60" as="geometry" />
        </mxCell>
        <mxCell id="PQHfU8y0sBaOPBiTjZiv-11" value="Data Preprocessing&lt;div&gt;(e.g. top 10 products)&lt;/div&gt;" style="rounded=1;whiteSpace=wrap;html=1;fillColor=#FFE6CC;strokeColor=#d79b00;strokeWidth=2;fontSize=15;textShadow=0;labelBorderColor=none;labelBackgroundColor=none;" vertex="1" parent="1">
          <mxGeometry x="195" y="100" width="150" height="60" as="geometry" />
        </mxCell>
        <mxCell id="PQHfU8y0sBaOPBiTjZiv-12" value="" style="shape=flexArrow;endArrow=classic;html=1;rounded=0;exitX=0.5;exitY=1;exitDx=0;exitDy=0;entryX=0.5;entryY=0;entryDx=0;entryDy=0;strokeWidth=2;fillColor=#d5e8d4;strokeColor=#82b366;" edge="1" parent="1" source="PQHfU8y0sBaOPBiTjZiv-3" target="PQHfU8y0sBaOPBiTjZiv-11">
          <mxGeometry width="50" height="50" relative="1" as="geometry">
            <mxPoint x="400" y="260" as="sourcePoint" />
            <mxPoint x="450" y="210" as="targetPoint" />
          </mxGeometry>
        </mxCell>
        <mxCell id="PQHfU8y0sBaOPBiTjZiv-13" value="" style="shape=flexArrow;endArrow=classic;html=1;rounded=0;exitX=0.5;exitY=1;exitDx=0;exitDy=0;entryX=0.5;entryY=0;entryDx=0;entryDy=0;strokeWidth=2;fillColor=#d5e8d4;strokeColor=#82b366;" edge="1" parent="1" source="PQHfU8y0sBaOPBiTjZiv-11" target="PQHfU8y0sBaOPBiTjZiv-4">
          <mxGeometry width="50" height="50" relative="1" as="geometry">
            <mxPoint x="280" y="60" as="sourcePoint" />
            <mxPoint x="280" y="110" as="targetPoint" />
            <Array as="points">
              <mxPoint x="270" y="200" />
              <mxPoint x="180" y="200" />
            </Array>
          </mxGeometry>
        </mxCell>
        <mxCell id="PQHfU8y0sBaOPBiTjZiv-14" value="" style="shape=flexArrow;endArrow=classic;html=1;rounded=0;exitX=0.5;exitY=1;exitDx=0;exitDy=0;entryX=0.5;entryY=0;entryDx=0;entryDy=0;strokeWidth=2;fillColor=#d5e8d4;strokeColor=#82b366;" edge="1" parent="1" source="PQHfU8y0sBaOPBiTjZiv-11" target="PQHfU8y0sBaOPBiTjZiv-6">
          <mxGeometry width="50" height="50" relative="1" as="geometry">
            <mxPoint x="280" y="170" as="sourcePoint" />
            <mxPoint x="190" y="240" as="targetPoint" />
            <Array as="points">
              <mxPoint x="270" y="200" />
              <mxPoint x="360" y="200" />
            </Array>
          </mxGeometry>
        </mxCell>
        <mxCell id="PQHfU8y0sBaOPBiTjZiv-15" value="" style="shape=flexArrow;endArrow=classic;html=1;rounded=0;exitX=0.5;exitY=1;exitDx=0;exitDy=0;entryX=0.5;entryY=0;entryDx=0;entryDy=0;strokeWidth=2;fillColor=#d5e8d4;strokeColor=#82b366;" edge="1" parent="1" source="PQHfU8y0sBaOPBiTjZiv-4" target="PQHfU8y0sBaOPBiTjZiv-7">
          <mxGeometry width="50" height="50" relative="1" as="geometry">
            <mxPoint x="280" y="60" as="sourcePoint" />
            <mxPoint x="280" y="110" as="targetPoint" />
            <Array as="points">
              <mxPoint x="180" y="320" />
              <mxPoint x="270" y="320" />
            </Array>
          </mxGeometry>
        </mxCell>
        <mxCell id="PQHfU8y0sBaOPBiTjZiv-16" value="" style="shape=flexArrow;endArrow=classic;html=1;rounded=0;exitX=0.5;exitY=1;exitDx=0;exitDy=0;entryX=0.5;entryY=0;entryDx=0;entryDy=0;strokeWidth=2;fillColor=#d5e8d4;strokeColor=#82b366;" edge="1" parent="1" source="PQHfU8y0sBaOPBiTjZiv-6" target="PQHfU8y0sBaOPBiTjZiv-7">
          <mxGeometry width="50" height="50" relative="1" as="geometry">
            <mxPoint x="190" y="300" as="sourcePoint" />
            <mxPoint x="280" y="360" as="targetPoint" />
            <Array as="points">
              <mxPoint x="360" y="320" />
              <mxPoint x="270" y="320" />
            </Array>
          </mxGeometry>
        </mxCell>
        <mxCell id="PQHfU8y0sBaOPBiTjZiv-17" value="" style="shape=flexArrow;endArrow=classic;html=1;rounded=0;entryX=1;entryY=0.5;entryDx=0;entryDy=0;strokeWidth=2;fillColor=#d5e8d4;strokeColor=#82b366;exitX=0;exitY=0.5;exitDx=0;exitDy=0;" edge="1" parent="1" source="PQHfU8y0sBaOPBiTjZiv-6" target="PQHfU8y0sBaOPBiTjZiv-4">
          <mxGeometry width="50" height="50" relative="1" as="geometry">
            <mxPoint x="280" y="60" as="sourcePoint" />
            <mxPoint x="280" y="110" as="targetPoint" />
          </mxGeometry>
        </mxCell>
      </root>
    </mxGraphModel>
  </diagram>
</mxfile>
